# xmcd
#
# Track frame offsets:
#	150
#	24617
#	40750
#	57385
#	75865
#	94747
#	111227
#	128805
#	143120
#	157527
#	175062
#	194062
#
# Disc length: 2791 seconds
#
# Revision: 1
# Processed by: cddbd v1.5.1PL0 Copyright (c) Steve Scherf et al.
# Submitted via: CDex 1.50Beta5
#
DISCID=930ae50c
DTITLE=りんけんバンド - バンジ
DYEAR=1993
DGENRE=
TTITLE0=網叟どー
TTITLE1=上等
TTITLE2=うぐゎん
TTITLE3=ビーチパーリー
TTITLE4=七月でむぬ
TTITLE5=ムリカ六星
TTITLE6=沖繩ルムバ
TTITLE7=副々
TTITLE8=遊でいなーびら
TTITLE9=走舟
TTITLE10=世世世
TTITLE11=白雲
EXTD=
EXTT0=
EXTT1=
EXTT2=
EXTT3=
EXTT4=
EXTT5=
EXTT6=
EXTT7=
EXTT8=
EXTT9=
EXTT10=
EXTT11=
PLAYORDER=
